<svg width="267" height="78" viewBox="0 0 267 78" fill="none" xmlns="http://www.w3.org/2000/svg">
<path d="M100.912 24.176H108.528V24.432L91.504 44.08L109.68 69.744V70H102.448L87.536 48.624L80.496 56.752V70H74.608V24.176H80.496V47.792H80.752L100.912 24.176ZM119.285 24.176V70H113.397V24.176H119.285ZM176.234 25.392V70H170.41V49.776H147.69V70H141.866V25.392H147.69V44.976H170.41V25.392H176.234ZM212.354 70H206.722V65.648H206.466C205.57 67.184 204.183 68.464 202.306 69.488C200.471 70.512 198.551 71.024 196.546 71.024C192.706 71.024 189.741 69.936 187.65 67.76C185.602 65.5413 184.578 62.4053 184.578 58.352V38.64H190.466V57.968C190.594 63.088 193.175 65.648 198.21 65.648C200.557 65.648 202.519 64.7093 204.098 62.832C205.677 60.912 206.466 58.6293 206.466 55.984V38.64H212.354V70ZM236.098 71.024C233.794 71.024 231.682 70.5333 229.762 69.552C227.884 68.5707 226.434 67.2693 225.41 65.648H225.154V70H219.522V24.176H225.41V38.64L225.154 42.992H225.41C226.434 41.3707 227.884 40.0693 229.762 39.088C231.682 38.1067 233.794 37.616 236.098 37.616C240.236 37.616 243.735 39.2373 246.594 42.48C249.538 45.7653 251.01 49.712 251.01 54.32C251.01 58.9707 249.538 62.9173 246.594 66.16C243.735 69.4027 240.236 71.024 236.098 71.024ZM235.138 65.648C237.954 65.648 240.322 64.5813 242.242 62.448C244.162 60.3573 245.122 57.648 245.122 54.32C245.122 51.0347 244.162 48.3253 242.242 46.192C240.322 44.0587 237.954 42.992 235.138 42.992C232.279 42.992 229.89 44.0587 227.97 46.192C226.092 48.3253 225.154 51.0347 225.154 54.32C225.154 57.648 226.092 60.3787 227.97 62.512C229.89 64.6027 232.279 65.648 235.138 65.648Z" fill="#777777"/>
<path d="M132.683 38H127V70H132.683V38Z" fill="#777777"/>
<path d="M8.75 40.5C9.24445 40.5 9.7278 40.3534 10.1389 40.0787C10.55 39.804 10.8705 39.4135 11.0597 38.9567C11.2489 38.4999 11.2984 37.9972 11.202 37.5123C11.1055 37.0273 10.8674 36.5819 10.5178 36.2322C10.1681 35.8826 9.72268 35.6445 9.23773 35.548C8.75277 35.4516 8.25011 35.5011 7.79329 35.6903C7.33648 35.8795 6.94603 36.2 6.67133 36.6111C6.39662 37.0222 6.25 37.5055 6.25 38C6.25 38.663 6.51339 39.2989 6.98223 39.7678C7.45107 40.2366 8.08696 40.5 8.75 40.5ZM18.75 40.5H36.25C38.2391 40.5 40.1468 39.7098 41.5533 38.3033C42.9598 36.8968 43.75 34.9891 43.75 33C43.75 31.0109 42.9598 29.1032 41.5533 27.6967C40.1468 26.2902 38.2391 25.5 36.25 25.5C34.9348 25.5054 33.6433 25.8499 32.5 26.5C32.2135 26.6633 31.9622 26.8817 31.7605 27.1426C31.5588 27.4034 31.4107 27.7016 31.3247 28.02C31.2387 28.3383 31.2166 28.6706 31.2595 28.9975C31.3025 29.3244 31.4097 29.6397 31.575 29.925C31.7404 30.2094 31.9603 30.4583 32.2221 30.6575C32.4839 30.8568 32.7825 31.0024 33.1007 31.086C33.4189 31.1696 33.7504 31.1896 34.0763 31.1448C34.4023 31.1 34.7162 30.9913 35 30.825C35.3846 30.6181 35.8133 30.5066 36.25 30.5C36.913 30.5 37.5489 30.7634 38.0178 31.2322C38.4866 31.7011 38.75 32.337 38.75 33C38.75 33.663 38.4866 34.2989 38.0178 34.7678C37.5489 35.2366 36.913 35.5 36.25 35.5H18.75C18.087 35.5 17.4511 35.7634 16.9822 36.2322C16.5134 36.7011 16.25 37.337 16.25 38C16.25 38.663 16.5134 39.2989 16.9822 39.7678C17.4511 40.2366 18.087 40.5 18.75 40.5ZM8.75 50.5H26.25C26.913 50.5 27.5489 50.2366 28.0178 49.7678C28.4866 49.2989 28.75 48.663 28.75 48C28.75 47.337 28.4866 46.7011 28.0178 46.2322C27.5489 45.7634 26.913 45.5 26.25 45.5H8.75C8.08696 45.5 7.45107 45.7634 6.98223 46.2322C6.51339 46.7011 6.25 47.337 6.25 48C6.25 48.663 6.51339 49.2989 6.98223 49.7678C7.45107 50.2366 8.08696 50.5 8.75 50.5ZM51.25 40.5C51.7445 40.5 52.2278 40.3534 52.6389 40.0787C53.05 39.804 53.3705 39.4135 53.5597 38.9567C53.7489 38.4999 53.7984 37.9972 53.702 37.5123C53.6055 37.0273 53.3674 36.5819 53.0178 36.2322C52.6681 35.8826 52.2227 35.6445 51.7377 35.548C51.2528 35.4516 50.7501 35.5011 50.2933 35.6903C49.8365 35.8795 49.446 36.2 49.1713 36.6111C48.8966 37.0222 48.75 37.5055 48.75 38C48.75 38.663 49.0134 39.2989 49.4822 39.7678C49.9511 40.2366 50.587 40.5 51.25 40.5ZM46.25 45.5H36.25C35.587 45.5 34.9511 45.7634 34.4822 46.2322C34.0134 46.7011 33.75 47.337 33.75 48C33.75 48.663 34.0134 49.2989 34.4822 49.7678C34.9511 50.2366 35.587 50.5 36.25 50.5H46.25C46.913 50.5 47.5489 50.7634 48.0178 51.2322C48.4866 51.7011 48.75 52.337 48.75 53C48.75 53.663 48.4866 54.2989 48.0178 54.7678C47.5489 55.2366 46.913 55.5 46.25 55.5C45.587 55.5 44.9511 55.7634 44.4822 56.2322C44.0134 56.7011 43.75 57.337 43.75 58C43.75 58.663 44.0134 59.2989 44.4822 59.7678C44.9511 60.2366 45.587 60.5 46.25 60.5C48.2391 60.5 50.1468 59.7098 51.5533 58.3033C52.9598 56.8968 53.75 54.9891 53.75 53C53.75 51.0109 52.9598 49.1032 51.5533 47.6967C50.1468 46.2902 48.2391 45.5 46.25 45.5ZM31.25 55.5H21.25C20.587 55.5 19.9511 55.7634 19.4822 56.2322C19.0134 56.7011 18.75 57.337 18.75 58C18.75 58.663 19.0134 59.2989 19.4822 59.7678C19.9511 60.2366 20.587 60.5 21.25 60.5H31.25C31.913 60.5 32.5489 60.7634 33.0178 61.2322C33.4866 61.7011 33.75 62.337 33.75 63C33.75 63.663 33.4866 64.2989 33.0178 64.7678C32.5489 65.2366 31.913 65.5 31.25 65.5C30.8133 65.4934 30.3846 65.3819 30 65.175C29.7155 64.9941 29.3973 64.8727 29.0646 64.8179C28.7319 64.7632 28.3915 64.7764 28.064 64.8566C27.7365 64.9368 27.4287 65.0824 27.1589 65.2847C26.8892 65.487 26.6631 65.7418 26.4944 66.0337C26.3257 66.3256 26.2177 66.6486 26.1771 66.9833C26.1364 67.318 26.1639 67.6575 26.2578 67.9813C26.3518 68.3052 26.5102 68.6066 26.7237 68.8676C26.9372 69.1286 27.2012 69.3437 27.5 69.5C28.6433 70.1501 29.9348 70.4946 31.25 70.5C33.2391 70.5 35.1468 69.7098 36.5533 68.3033C37.9598 66.8968 38.75 64.9891 38.75 63C38.75 61.0109 37.9598 59.1032 36.5533 57.6967C35.1468 56.2902 33.2391 55.5 31.25 55.5ZM11.25 55.5H8.75C8.08696 55.5 7.45107 55.7634 6.98223 56.2322C6.51339 56.7011 6.25 57.337 6.25 58C6.25 58.663 6.51339 59.2989 6.98223 59.7678C7.45107 60.2366 8.08696 60.5 8.75 60.5H11.25C11.913 60.5 12.5489 60.2366 13.0178 59.7678C13.4866 59.2989 13.75 58.663 13.75 58C13.75 57.337 13.4866 56.7011 13.0178 56.2322C12.5489 55.7634 11.913 55.5 11.25 55.5Z" fill="#0047FF"/>
<g clip-path="url(#clip0)">
<path fill-rule="evenodd" clip-rule="evenodd" d="M131.601 25.9375C131.598 25.9376 131.596 25.9385 131.594 25.94L127.054 30.3569C127.031 30.3786 127.016 30.4065 127.01 30.437C127.004 30.4675 127.006 30.4992 127.018 30.5281C127.03 30.5569 127.05 30.5815 127.076 30.5988C127.102 30.6161 127.133 30.6252 127.164 30.625H129.219C129.296 30.625 129.371 30.644 129.439 30.6801C129.507 30.7163 129.565 30.7687 129.608 30.8325C129.651 30.8964 129.677 30.9698 129.685 31.0463C129.693 31.1228 129.682 31.2001 129.652 31.2713L128.582 33.8888L132.946 29.6431C132.968 29.6214 132.983 29.5936 132.99 29.5631C132.996 29.5327 132.993 29.501 132.981 29.4722C132.969 29.4434 132.949 29.4188 132.924 29.4015C132.898 29.3842 132.867 29.3749 132.836 29.375H130.781C130.703 29.375 130.626 29.3553 130.557 29.3178C130.488 29.2803 130.43 29.2261 130.387 29.1601C130.345 29.0942 130.319 29.0187 130.314 28.9405C130.308 28.8623 130.322 28.7839 130.354 28.7125L131.609 25.9513L131.611 25.9475C131.611 25.9454 131.61 25.9435 131.609 25.9419C131.608 25.9404 131.607 25.9391 131.605 25.9381L131.6 25.9375H131.601ZM130.94 25.2688C131.098 25.1151 131.305 25.0215 131.525 25.0041C131.745 24.9867 131.964 25.0466 132.145 25.1735C132.325 25.3003 132.456 25.4862 132.514 25.6991C132.572 25.9119 132.554 26.1384 132.463 26.3394L131.509 28.4375H132.836C133.818 28.4375 134.303 29.6306 133.599 30.315L129.011 34.7788C128.865 34.9205 128.67 34.9999 128.467 35H128.278C128.15 35 128.024 34.9685 127.911 34.9082C127.798 34.8479 127.701 34.7607 127.63 34.6543C127.558 34.5479 127.514 34.4255 127.501 34.298C127.488 34.1705 127.507 34.0418 127.555 33.9231L128.521 31.5625H127.164C126.183 31.5625 125.698 30.3694 126.401 29.685L130.939 25.2681L130.94 25.2688Z" fill="#FFC700"/>
</g>
<defs>
<clipPath id="clip0">
<rect width="10" height="10" fill="white" transform="translate(125 25)"/>
</clipPath>
</defs>
</svg>
