<svg width="60" height="60" viewBox="0 0 60 60" fill="none" xmlns="http://www.w3.org/2000/svg">
<path d="M8.75 22.5C9.24445 22.5 9.7278 22.3534 10.1389 22.0787C10.55 21.804 10.8705 21.4135 11.0597 20.9567C11.2489 20.4999 11.2984 19.9972 11.202 19.5123C11.1055 19.0273 10.8674 18.5819 10.5178 18.2322C10.1681 17.8826 9.72268 17.6445 9.23773 17.548C8.75277 17.4516 8.25011 17.5011 7.79329 17.6903C7.33648 17.8795 6.94603 18.2 6.67133 18.6111C6.39662 19.0222 6.25 19.5055 6.25 20C6.25 20.663 6.51339 21.2989 6.98223 21.7678C7.45107 22.2366 8.08696 22.5 8.75 22.5ZM18.75 22.5H36.25C38.2391 22.5 40.1468 21.7098 41.5533 20.3033C42.9598 18.8968 43.75 16.9891 43.75 15C43.75 13.0109 42.9598 11.1032 41.5533 9.6967C40.1468 8.29018 38.2391 7.5 36.25 7.5C34.9348 7.50544 33.6433 7.84986 32.5 8.5C32.2135 8.66333 31.9622 8.88171 31.7605 9.14258C31.5588 9.40344 31.4107 9.70164 31.3247 10.02C31.2387 10.3383 31.2166 10.6706 31.2595 10.9975C31.3025 11.3244 31.4097 11.6397 31.575 11.925C31.7404 12.2094 31.9603 12.4583 32.2221 12.6575C32.4839 12.8568 32.7825 13.0024 33.1007 13.086C33.4189 13.1696 33.7504 13.1896 34.0763 13.1448C34.4023 13.1 34.7162 12.9913 35 12.825C35.3846 12.6181 35.8133 12.5066 36.25 12.5C36.913 12.5 37.5489 12.7634 38.0178 13.2322C38.4866 13.7011 38.75 14.337 38.75 15C38.75 15.663 38.4866 16.2989 38.0178 16.7678C37.5489 17.2366 36.913 17.5 36.25 17.5H18.75C18.087 17.5 17.4511 17.7634 16.9822 18.2322C16.5134 18.7011 16.25 19.337 16.25 20C16.25 20.663 16.5134 21.2989 16.9822 21.7678C17.4511 22.2366 18.087 22.5 18.75 22.5ZM8.75 32.5H26.25C26.913 32.5 27.5489 32.2366 28.0178 31.7678C28.4866 31.2989 28.75 30.663 28.75 30C28.75 29.337 28.4866 28.7011 28.0178 28.2322C27.5489 27.7634 26.913 27.5 26.25 27.5H8.75C8.08696 27.5 7.45107 27.7634 6.98223 28.2322C6.51339 28.7011 6.25 29.337 6.25 30C6.25 30.663 6.51339 31.2989 6.98223 31.7678C7.45107 32.2366 8.08696 32.5 8.75 32.5ZM51.25 22.5C51.7445 22.5 52.2278 22.3534 52.6389 22.0787C53.05 21.804 53.3705 21.4135 53.5597 20.9567C53.7489 20.4999 53.7984 19.9972 53.702 19.5123C53.6055 19.0273 53.3674 18.5819 53.0178 18.2322C52.6681 17.8826 52.2227 17.6445 51.7377 17.548C51.2528 17.4516 50.7501 17.5011 50.2933 17.6903C49.8365 17.8795 49.446 18.2 49.1713 18.6111C48.8966 19.0222 48.75 19.5055 48.75 20C48.75 20.663 49.0134 21.2989 49.4822 21.7678C49.9511 22.2366 50.587 22.5 51.25 22.5ZM46.25 27.5H36.25C35.587 27.5 34.9511 27.7634 34.4822 28.2322C34.0134 28.7011 33.75 29.337 33.75 30C33.75 30.663 34.0134 31.2989 34.4822 31.7678C34.9511 32.2366 35.587 32.5 36.25 32.5H46.25C46.913 32.5 47.5489 32.7634 48.0178 33.2322C48.4866 33.7011 48.75 34.337 48.75 35C48.75 35.663 48.4866 36.2989 48.0178 36.7678C47.5489 37.2366 46.913 37.5 46.25 37.5C45.587 37.5 44.9511 37.7634 44.4822 38.2322C44.0134 38.7011 43.75 39.337 43.75 40C43.75 40.663 44.0134 41.2989 44.4822 41.7678C44.9511 42.2366 45.587 42.5 46.25 42.5C48.2391 42.5 50.1468 41.7098 51.5533 40.3033C52.9598 38.8968 53.75 36.9891 53.75 35C53.75 33.0109 52.9598 31.1032 51.5533 29.6967C50.1468 28.2902 48.2391 27.5 46.25 27.5ZM31.25 37.5H21.25C20.587 37.5 19.9511 37.7634 19.4822 38.2322C19.0134 38.7011 18.75 39.337 18.75 40C18.75 40.663 19.0134 41.2989 19.4822 41.7678C19.9511 42.2366 20.587 42.5 21.25 42.5H31.25C31.913 42.5 32.5489 42.7634 33.0178 43.2322C33.4866 43.7011 33.75 44.337 33.75 45C33.75 45.663 33.4866 46.2989 33.0178 46.7678C32.5489 47.2366 31.913 47.5 31.25 47.5C30.8133 47.4934 30.3846 47.3819 30 47.175C29.7155 46.9941 29.3973 46.8727 29.0646 46.8179C28.7319 46.7632 28.3915 46.7764 28.064 46.8566C27.7365 46.9368 27.4287 47.0824 27.1589 47.2847C26.8892 47.487 26.6631 47.7418 26.4944 48.0337C26.3257 48.3256 26.2177 48.6486 26.1771 48.9833C26.1364 49.318 26.1639 49.6575 26.2578 49.9813C26.3518 50.3052 26.5102 50.6066 26.7237 50.8676C26.9372 51.1286 27.2012 51.3437 27.5 51.5C28.6433 52.1501 29.9348 52.4946 31.25 52.5C33.2391 52.5 35.1468 51.7098 36.5533 50.3033C37.9598 48.8968 38.75 46.9891 38.75 45C38.75 43.0109 37.9598 41.1032 36.5533 39.6967C35.1468 38.2902 33.2391 37.5 31.25 37.5ZM11.25 37.5H8.75C8.08696 37.5 7.45107 37.7634 6.98223 38.2322C6.51339 38.7011 6.25 39.337 6.25 40C6.25 40.663 6.51339 41.2989 6.98223 41.7678C7.45107 42.2366 8.08696 42.5 8.75 42.5H11.25C11.913 42.5 12.5489 42.2366 13.0178 41.7678C13.4866 41.2989 13.75 40.663 13.75 40C13.75 39.337 13.4866 38.7011 13.0178 38.2322C12.5489 37.7634 11.913 37.5 11.25 37.5Z" fill="#0047FF"/>
</svg>
